<?xml version="1.0" encoding="UTF-8" standalone="no"?>
<!DOCTYPE svg PUBLIC "-//W3C//DTD SVG 1.1//EN" "http://www.w3.org/Graphics/SVG/1.1/DTD/svg11.dtd">
<svg width="100%" height="100%" viewBox="0 0 500 500" version="1.1" xmlns="http://www.w3.org/2000/svg" xmlns:xlink="http://www.w3.org/1999/xlink" xml:space="preserve" xmlns:serif="http://www.serif.com/" style="fill-rule:evenodd;clip-rule:evenodd;stroke-linejoin:round;stroke-miterlimit:2;">
    <g transform="matrix(0.925218,0,0,0.925218,17.4439,51.9514)">
        <path d="M255.941,406.606C276.285,405.572 298.38,405.889 321.425,405.006C451.978,400.006 505.425,415.984 505.425,429.506C505.425,443.028 453.978,454.006 352.425,454.006C329.363,454.006 183.394,449.857 159.762,451.006C24.296,457.593 -14.028,445.67 0,429.506C17.678,409.136 84.582,405.006 188.762,405.006C212.422,405.006 235.07,405.572 255.941,406.606Z" style="fill-opacity:0.44;"/>
    </g>
    <g transform="matrix(0.925218,0,0,0.925218,-0.644668,8.46614)">
        <g transform="matrix(0.617587,2.77556e-17,-2.77556e-17,0.617587,-42.3047,198.168)">
            <g>
                <g>
                    <g transform="matrix(1,0,0,1,-0.401788,0)">
                        <path d="M161.556,291C158.053,266.185 181.683,229.474 230.238,219.433L298.3,219.433C344.943,225.751 368.67,265.217 363.218,291L363.986,291L363.986,395.476C363.986,421.723 341.299,434.511 316.462,443C285.967,453.423 243.136,453.382 208.74,443C183.612,435.416 161.216,421.723 161.216,395.476L161.216,291L161.556,291Z" style="fill:rgb(255,188,233);"/>
                    </g>
                    <g transform="matrix(0.731411,0,0,0.5,67.7254,136.34)">
                        <path d="M230.619,321.706C252.912,314.988 276.296,314.272 301.162,321.706C302.183,322.012 303.181,321.047 303.39,319.553C303.599,318.059 302.939,316.599 301.918,316.294C276.517,308.7 252.63,309.433 229.857,316.294C228.836,316.602 228.178,318.064 228.388,319.557C228.599,321.051 229.598,322.013 230.619,321.706Z" style="fill:rgb(255,162,192);"/>
                    </g>
                </g>
                <g>
                    <g>
                        <g transform="matrix(1.11538,-0.454785,0.453996,1.11345,-232.433,25.7149)">
                            <ellipse cx="189.5" cy="423.5" rx="41.5" ry="50.5" style="fill:rgb(255,208,235);"/>
                        </g>
                        <g transform="matrix(0.796709,-0.32485,0.347209,0.851545,-126.82,117.007)">
                            <ellipse cx="189.5" cy="423.5" rx="41.5" ry="50.5" style="fill:rgb(255,200,192);"/>
                        </g>
                    </g>
                    <g transform="matrix(-1,0,0,1,524.399,0)">
                        <g transform="matrix(1.11538,-0.454785,0.453996,1.11345,-232.433,25.7149)">
                            <ellipse cx="189.5" cy="423.5" rx="41.5" ry="50.5" style="fill:rgb(255,208,235);"/>
                        </g>
                        <g transform="matrix(0.796709,-0.32485,0.347209,0.851545,-126.82,117.007)">
                            <ellipse cx="189.5" cy="423.5" rx="41.5" ry="50.5" style="fill:rgb(255,200,192);"/>
                        </g>
                    </g>
                </g>
                <g transform="matrix(1,0,0,1,-2.01476,0)">
                    <g transform="matrix(-1.46667,0,0,1.17001,422.268,-42.0797)">
                        <path d="M141.195,283.874C167.711,284.404 160.045,250.732 149.619,239.753L157.634,237.382C188.173,245.773 228.508,345.51 140.05,333.93C138.867,333.775 137.683,333.846 136.537,333.655C124.371,331.973 115,321.512 115,308.88C115,295.386 125.692,284.37 139.061,283.88C139.821,283.756 140.54,283.737 141.195,283.874Z" style="fill:rgb(255,200,235);"/>
                    </g>
                    <g transform="matrix(1.46667,0,0,1.17001,106.274,-42.0797)">
                        <path d="M141.195,283.874C167.711,284.404 159.272,250.284 148.845,239.305L157.456,235.965C187.995,244.355 228.508,345.51 140.05,333.93C138.867,333.775 137.683,333.846 136.537,333.655C124.371,331.973 115,321.512 115,308.88C115,295.386 125.692,284.37 139.061,283.88C139.821,283.756 140.54,283.737 141.195,283.874Z" style="fill:rgb(255,200,235);"/>
                    </g>
                </g>
            </g>
            <g transform="matrix(1,0,0,1,-9.40145,-102)">
                <path d="M230.667,158.153C243.083,152.284 256.962,149 271.601,149C286.24,149 300.119,152.284 312.535,158.153L362.058,151C366.892,150.301 371.739,152.189 374.828,155.973C377.917,159.757 378.796,164.883 377.144,169.48L361.816,212.129C365.559,222.383 367.601,233.455 367.601,245C367.601,252.863 366.654,260.506 364.866,267.824C371.598,275.494 375.601,285.091 375.601,295.5C375.601,320.612 352.301,341 323.601,341C291.439,345.593 256.756,345.561 219.601,341C190.901,341 167.601,320.612 167.601,295.5C167.601,285.091 171.604,275.494 178.336,267.824C176.548,260.506 175.601,252.863 175.601,245C175.601,233.455 177.643,222.383 181.386,212.129L166.058,169.48C164.406,164.883 165.285,159.757 168.374,155.973C171.463,152.189 176.31,150.301 181.144,151L230.667,158.153Z" style="fill:rgb(255,200,235);"/>
                <g transform="matrix(0.556002,-0.66299,0.449374,0.376858,-39.121,244.218)">
                    <path d="M227.53,206.94C228.929,204.143 231.144,202.492 233.5,202.492C235.856,202.492 238.071,204.143 239.47,206.94C244.654,217.308 252.177,232.354 257.715,243.429C259.103,246.206 259.313,249.898 258.259,252.978C257.205,256.058 254.587,259.418 252.727,258C240.68,248.809 224.431,248.881 214.273,258C212.532,259.562 209.795,256.058 208.741,252.978C207.687,249.898 207.897,246.206 209.285,243.429C214.823,232.354 222.346,217.308 227.53,206.94Z" style="fill:rgb(255,162,192);"/>
                </g>
                <g transform="matrix(-0.556002,-0.66299,-0.449374,0.376858,584.013,244.218)">
                    <path d="M227.53,206.94C228.929,204.143 231.144,202.492 233.5,202.492C235.856,202.492 238.071,204.143 239.47,206.94C244.654,217.308 252.177,232.354 257.715,243.429C259.103,246.206 259.313,249.898 258.259,252.978C257.205,256.058 254.587,259.418 252.727,258C240.68,248.809 224.431,248.881 214.273,258C212.532,259.562 209.795,256.058 208.741,252.978C207.687,249.898 207.897,246.206 209.285,243.429C214.823,232.354 222.346,217.308 227.53,206.94Z" style="fill:rgb(255,162,192);"/>
                </g>
                <g transform="matrix(1,0,0,1,0.600979,0)">
                    <g>
                        <g transform="matrix(1,0,0,1,-11,0)">
                            <circle cx="236" cy="247" r="11"/>
                        </g>
                        <g transform="matrix(0.181818,0,0,0.181818,186.091,198.091)">
                            <circle cx="236" cy="247" r="11" style="fill:white;"/>
                        </g>
                    </g>
                    <g>
                        <g transform="matrix(1,0,0,1,81,0)">
                            <circle cx="236" cy="247" r="11"/>
                        </g>
                        <g transform="matrix(0.181818,0,0,0.181818,278.091,198.091)">
                            <circle cx="236" cy="247" r="11" style="fill:white;"/>
                        </g>
                    </g>
                </g>
                <g>
                    <g transform="matrix(1,0,0,1,0.600979,-15)">
                        <path d="M306,298C306,285.85 296.15,276 284,276C275.711,276 266.289,276 258,276C245.85,276 236,285.85 236,298C236,298 236,298 236,298C236,310.15 245.85,320 258,320C266.289,320 275.711,320 284,320C296.15,320 306,310.15 306,298C306,298 306,298 306,298Z" style="fill:rgb(255,162,192);"/>
                    </g>
                    <g transform="matrix(1,0,0,1,-2.02857,-1.13687e-13)">
                        <g transform="matrix(1.3996e-17,0.228571,-0.228571,1.3996e-17,329.744,221.057)">
                            <path d="M306,297.997C306,285.849 296.151,276 284.003,276C275.712,276 266.288,276 257.997,276C245.849,276 236,285.849 236,297.997C236,297.999 236,298.001 236,298.003C236,310.151 245.849,320 257.997,320C266.288,320 275.712,320 284.003,320C296.151,320 306,310.151 306,298.003C306,298.001 306,297.999 306,297.997Z" style="fill:rgb(255,200,235);"/>
                        </g>
                        <g transform="matrix(1.3996e-17,0.228571,-0.228571,1.3996e-17,353.744,221.057)">
                            <path d="M306,297.997C306,285.849 296.151,276 284.003,276C275.712,276 266.288,276 257.997,276C245.849,276 236,285.849 236,297.997C236,297.999 236,298.001 236,298.003C236,310.151 245.849,320 257.997,320C266.288,320 275.712,320 284.003,320C296.151,320 306,310.151 306,298.003C306,298.001 306,297.999 306,297.997Z" style="fill:rgb(255,200,235);"/>
                        </g>
                    </g>
                </g>
            </g>
        </g>
        <g transform="matrix(1.01837,0,0,1.01837,74.6169,-16.3299)">
            <g transform="matrix(1.06373,0,0,1.06373,-19.2526,-6.59251)">
                <g transform="matrix(1,0,0,1,1.78555,0)">
                    <g transform="matrix(1,0,0,1,-0.401788,0)">
                        <path d="M161.556,291C158.053,266.185 181.683,229.474 230.238,219.433L298.3,219.433C344.943,225.751 368.67,265.217 363.218,291L363.986,291L363.986,395.476C363.986,421.723 341.299,434.511 316.462,443C285.967,453.423 243.136,453.382 208.74,443C183.612,435.416 161.216,421.723 161.216,395.476L161.216,291L161.556,291Z" style="fill:rgb(168,74,0);"/>
                    </g>
                    <g transform="matrix(0.731411,0,0,0.5,67.7254,136.34)">
                        <path d="M230.619,321.706C252.912,314.988 276.296,314.272 301.162,321.706C302.183,322.012 303.181,321.047 303.39,319.553C303.599,318.059 302.939,316.599 301.918,316.294C276.517,308.7 252.63,309.433 229.857,316.294C228.836,316.602 228.178,318.064 228.388,319.557C228.599,321.051 229.598,322.013 230.619,321.706Z" style="fill:white;fill-opacity:0.16;"/>
                    </g>
                </g>
                <g>
                    <g>
                        <g transform="matrix(1.11538,-0.454785,0.453996,1.11345,-232.433,25.7149)">
                            <ellipse cx="189.5" cy="423.5" rx="41.5" ry="50.5" style="fill:rgb(182,90,0);"/>
                        </g>
                        <g transform="matrix(0.796709,-0.32485,0.347209,0.851545,-126.82,117.007)">
                            <ellipse cx="189.5" cy="423.5" rx="41.5" ry="50.5" style="fill:rgb(255,156,109);"/>
                        </g>
                    </g>
                    <g transform="matrix(-1,0,0,1,524.399,0)">
                        <g transform="matrix(1.11538,-0.454785,0.453996,1.11345,-232.433,25.7149)">
                            <ellipse cx="189.5" cy="423.5" rx="41.5" ry="50.5" style="fill:rgb(182,90,0);"/>
                        </g>
                        <g transform="matrix(0.796709,-0.32485,0.347209,0.851545,-126.82,117.007)">
                            <ellipse cx="189.5" cy="423.5" rx="41.5" ry="50.5" style="fill:rgb(255,156,109);"/>
                        </g>
                    </g>
                </g>
                <g transform="matrix(0.480963,-7.81982e-18,7.81982e-18,0.480963,187.671,243.575)">
                    <g transform="matrix(1,0,0,1,0,95.5)">
                        <path d="M157.735,82C163.674,79.114 175.838,77.134 189.866,77.134C203.893,77.134 216.057,79.114 221.996,82L225.866,82L225.866,86C225.866,90.893 209.735,94.866 189.866,94.866C169.997,94.866 153.866,90.893 153.866,86L153.866,82L157.735,82Z" style="fill:rgb(182,90,0);"/>
                        <g transform="matrix(3.38133e-17,0.552213,-1,6.12323e-17,279.866,-22.8463)">
                            <path d="M189.866,54C199.726,54 205.92,70.131 205.92,90C205.92,109.869 199.726,126 189.866,126C180.005,126 172,109.869 172,90C172,70.131 180.005,54 189.866,54Z" style="fill:rgb(233,111,0);"/>
                        </g>
                    </g>
                    <g>
                        <path d="M218,83.5L161,83.5L161,177C168,183.804 211.097,183.903 218,177L218,83.5Z" style="fill:rgb(255,31,87);"/>
                        <g>
                            <g transform="matrix(1,0,0,1,0,7.86565)">
                                <path d="M160.694,96.952C160.694,96.952 188.99,106.05 218.296,96.955L217.704,95.045C189.01,103.95 161.306,95.048 161.306,95.048L160.694,96.952Z" style="fill:white;fill-opacity:0.27;"/>
                            </g>
                            <g transform="matrix(1,0,0,1,0,3.86565)">
                                <path d="M160.694,96.952C160.694,96.952 188.99,106.05 218.296,96.955L217.704,95.045C189.01,103.95 161.306,95.048 161.306,95.048L160.694,96.952Z" style="fill:white;fill-opacity:0.27;"/>
                            </g>
                            <g transform="matrix(1,0,0,1,0,-0.134355)">
                                <path d="M160.694,96.952C160.694,96.952 188.99,106.05 218.296,96.955L217.704,95.045C189.01,103.95 161.306,95.048 161.306,95.048L160.694,96.952Z" style="fill:white;fill-opacity:0.27;"/>
                            </g>
                            <g transform="matrix(1,0,0,1,0,19.8656)">
                                <path d="M160.694,96.952C160.694,96.952 188.99,106.05 218.296,96.955L217.704,95.045C189.01,103.95 161.306,95.048 161.306,95.048L160.694,96.952Z" style="fill:white;fill-opacity:0.27;"/>
                            </g>
                            <g transform="matrix(1,0,0,1,0,15.8656)">
                                <path d="M160.694,96.952C160.694,96.952 188.99,106.05 218.296,96.955L217.704,95.045C189.01,103.95 161.306,95.048 161.306,95.048L160.694,96.952Z" style="fill:white;fill-opacity:0.27;"/>
                            </g>
                            <g transform="matrix(1,0,0,1,0,11.8656)">
                                <path d="M160.694,96.952C160.694,96.952 188.99,106.05 218.296,96.955L217.704,95.045C189.01,103.95 161.306,95.048 161.306,95.048L160.694,96.952Z" style="fill:white;fill-opacity:0.27;"/>
                            </g>
                            <g transform="matrix(1,0,0,1,0,31.8656)">
                                <path d="M160.694,96.952C160.694,96.952 188.99,106.05 218.296,96.955L217.704,95.045C189.01,103.95 161.306,95.048 161.306,95.048L160.694,96.952Z" style="fill:white;fill-opacity:0.27;"/>
                            </g>
                            <g transform="matrix(1,0,0,1,0,27.8656)">
                                <path d="M160.694,96.952C160.694,96.952 188.99,106.05 218.296,96.955L217.704,95.045C189.01,103.95 161.306,95.048 161.306,95.048L160.694,96.952Z" style="fill:white;fill-opacity:0.27;"/>
                            </g>
                            <g transform="matrix(1,0,0,1,0,23.8656)">
                                <path d="M160.694,96.952C160.694,96.952 188.99,106.05 218.296,96.955L217.704,95.045C189.01,103.95 161.306,95.048 161.306,95.048L160.694,96.952Z" style="fill:white;fill-opacity:0.27;"/>
                            </g>
                            <g transform="matrix(1,0,0,1,0,43.8656)">
                                <path d="M160.694,96.952C160.694,96.952 188.99,106.05 218.296,96.955L217.704,95.045C189.01,103.95 161.306,95.048 161.306,95.048L160.694,96.952Z" style="fill:white;fill-opacity:0.27;"/>
                            </g>
                            <g transform="matrix(1,0,0,1,0,39.8656)">
                                <path d="M160.694,96.952C160.694,96.952 188.99,106.05 218.296,96.955L217.704,95.045C189.01,103.95 161.306,95.048 161.306,95.048L160.694,96.952Z" style="fill:white;fill-opacity:0.27;"/>
                            </g>
                            <g transform="matrix(1,0,0,1,0,35.8656)">
                                <path d="M160.694,96.952C160.694,96.952 188.99,106.05 218.296,96.955L217.704,95.045C189.01,103.95 161.306,95.048 161.306,95.048L160.694,96.952Z" style="fill:white;fill-opacity:0.27;"/>
                            </g>
                            <g transform="matrix(1,0,0,1,0,55.8656)">
                                <path d="M160.694,96.952C160.694,96.952 188.99,106.05 218.296,96.955L217.704,95.045C189.01,103.95 161.306,95.048 161.306,95.048L160.694,96.952Z" style="fill:white;fill-opacity:0.27;"/>
                            </g>
                            <g transform="matrix(1,0,0,1,0,51.8656)">
                                <path d="M160.694,96.952C160.694,96.952 188.99,106.05 218.296,96.955L217.704,95.045C189.01,103.95 161.306,95.048 161.306,95.048L160.694,96.952Z" style="fill:white;fill-opacity:0.27;"/>
                            </g>
                            <g transform="matrix(1,0,0,1,0,47.8656)">
                                <path d="M160.694,96.952C160.694,96.952 188.99,106.05 218.296,96.955L217.704,95.045C189.01,103.95 161.306,95.048 161.306,95.048L160.694,96.952Z" style="fill:white;fill-opacity:0.27;"/>
                            </g>
                            <g transform="matrix(1,0,0,1,0,67.8656)">
                                <path d="M160.694,96.952C160.694,96.952 188.99,106.05 218.296,96.955L217.704,95.045C189.01,103.95 161.306,95.048 161.306,95.048L160.694,96.952Z" style="fill:white;fill-opacity:0.27;"/>
                            </g>
                            <g transform="matrix(1,0,0,1,0,63.8656)">
                                <path d="M160.694,96.952C160.694,96.952 188.99,106.05 218.296,96.955L217.704,95.045C189.01,103.95 161.306,95.048 161.306,95.048L160.694,96.952Z" style="fill:white;fill-opacity:0.27;"/>
                            </g>
                            <g transform="matrix(1,0,0,1,0,59.8656)">
                                <path d="M160.694,96.952C160.694,96.952 188.99,106.05 218.296,96.955L217.704,95.045C189.01,103.95 161.306,95.048 161.306,95.048L160.694,96.952Z" style="fill:white;fill-opacity:0.27;"/>
                            </g>
                            <g transform="matrix(1,0,0,1,0,79.8656)">
                                <path d="M160.694,96.952C160.694,96.952 188.99,106.05 218.296,96.955L217.704,95.045C189.01,103.95 161.306,95.048 161.306,95.048L160.694,96.952Z" style="fill:white;fill-opacity:0.27;"/>
                            </g>
                            <g transform="matrix(1,0,0,1,0,75.8656)">
                                <path d="M160.694,96.952C160.694,96.952 188.99,106.05 218.296,96.955L217.704,95.045C189.01,103.95 161.306,95.048 161.306,95.048L160.694,96.952Z" style="fill:white;fill-opacity:0.27;"/>
                            </g>
                            <g transform="matrix(1,0,0,1,0,71.8656)">
                                <path d="M160.694,96.952C160.694,96.952 188.99,106.05 218.296,96.955L217.704,95.045C189.01,103.95 161.306,95.048 161.306,95.048L160.694,96.952Z" style="fill:white;fill-opacity:0.27;"/>
                            </g>
                        </g>
                    </g>
                    <g>
                        <g transform="matrix(1,0,0,1,0,5)">
                            <path d="M157.735,82C163.674,79.114 175.838,77.134 189.866,77.134C203.893,77.134 216.057,79.114 221.996,82L225.866,82L225.866,86C225.866,90.893 209.735,94.866 189.866,94.866C169.997,94.866 153.866,90.893 153.866,86L153.866,82L157.735,82Z" style="fill:rgb(182,90,0);"/>
                            <g transform="matrix(3.38133e-17,0.552213,-1,6.12323e-17,279.866,-22.8463)">
                                <path d="M189.866,54C199.726,54 205.92,70.131 205.92,90C205.92,109.869 199.726,126 189.866,126C180.005,126 172,109.869 172,90C172,70.131 180.005,54 189.866,54Z" style="fill:rgb(233,111,0);"/>
                            </g>
                        </g>
                        <g transform="matrix(0.280039,0,0,0.280039,136.33,63.1168)">
                            <g transform="matrix(1,0,0,0.896231,0,8.00419)">
                                <path d="M157.735,82C163.674,79.114 175.838,77.134 189.866,77.134C203.893,77.134 216.057,79.114 221.996,82L225.866,82L225.866,86C225.866,90.893 209.735,94.866 189.866,94.866C169.997,94.866 153.866,90.893 153.866,86L153.866,82L157.735,82Z" style="fill:rgb(223,154,108);"/>
                            </g>
                            <g transform="matrix(3.38133e-17,0.552213,-1,6.12323e-17,279.866,-22.8463)">
                                <path d="M189.866,54C199.726,54 205.92,70.131 205.92,90C205.92,109.869 199.726,126 189.866,126C180.005,126 172,109.869 172,90C172,70.131 180.005,54 189.866,54Z" style="fill:rgb(251,204,162);"/>
                            </g>
                            <g transform="matrix(2.87823e-17,0.47005,-0.900807,5.51585e-17,270.938,-7.32075)">
                                <path d="M189.866,54C199.726,54 205.92,70.131 205.92,90C205.92,109.869 199.726,126 189.866,126C180.005,126 172,109.869 172,90C172,70.131 180.005,54 189.866,54Z" style="fill-opacity:0.44;"/>
                            </g>
                        </g>
                    </g>
                </g>
                <g transform="matrix(1,0,0,1,-2.01476,0)">
                    <g transform="matrix(-1.46667,0,0,1.17001,422.268,-42.0797)">
                        <path d="M141.195,283.874C167.415,284.398 151.976,247.585 141.548,236.147C141.48,236.074 141.451,235.961 141.472,235.853C141.493,235.744 141.56,235.66 141.647,235.635C143.245,235.162 148.573,233.586 149.159,233.412C149.193,233.402 149.229,233.402 149.264,233.411C179.806,241.907 228.457,345.503 140.05,333.93C138.867,333.775 137.683,333.846 136.537,333.655C124.371,331.973 115,321.512 115,308.88C115,295.386 125.692,284.37 139.061,283.88C139.821,283.756 140.54,283.737 141.195,283.874Z" style="fill:rgb(182,90,0);"/>
                    </g>
                    <g transform="matrix(1.46667,0,0,1.17001,114.813,-42.0797)">
                        <path d="M141.195,283.874C167.423,284.398 148.474,244.642 137.969,233.153C137.902,233.082 137.872,232.969 137.892,232.862C137.912,232.755 137.977,232.67 138.062,232.642C139.602,232.14 144.717,230.47 145.303,230.278C145.339,230.267 145.377,230.266 145.413,230.276C175.96,238.78 228.455,345.503 140.05,333.93C138.867,333.775 137.683,333.846 136.537,333.655C124.371,331.973 115,321.512 115,308.88C115,295.386 125.692,284.37 139.061,283.88C139.821,283.756 140.54,283.737 141.195,283.874Z" style="fill:rgb(182,90,0);"/>
                    </g>
                </g>
            </g>
            <g transform="matrix(0.924,0,0,0.924,12.3333,-57.9315)">
                <g transform="matrix(0.928166,0,0,0.928166,-12.974,124.599)">
                    <path d="M338.906,41.967C348.227,31.884 361.561,25.568 376.359,25.568C404.506,25.568 427.359,48.421 427.359,76.568C427.359,94.301 418.288,109.933 404.541,119.07C405.891,125.765 406.599,132.695 406.599,139.789C406.599,197.464 359.774,244.289 302.099,244.289C244.424,244.289 197.599,197.464 197.599,139.789C197.599,132.586 198.33,125.551 199.719,118.763C186.228,109.585 177.359,94.104 177.359,76.568C177.359,48.421 200.211,25.568 228.359,25.568C243.085,25.568 256.363,31.824 265.677,41.822C277.015,37.599 289.289,35.289 302.099,35.289C315.053,35.289 327.459,37.651 338.906,41.967Z" style="fill:rgb(182,90,0);"/>
                </g>
                <g transform="matrix(0.319323,0,0,0.319323,93.9234,143.298)">
                    <path d="M261.624,234.178C260.591,236.812 258.284,238.734 255.507,239.274C252.73,239.814 249.87,238.896 247.926,236.841C230.573,217.53 220,191.99 220,164C220,103.841 268.841,55 329,55C350.993,55 371.473,61.528 388.597,72.769C390.917,74.358 392.261,77.025 392.159,79.835C392.056,82.645 390.522,85.206 388.093,86.623C331.388,120.497 286.585,172.285 261.624,234.178Z" style="fill:rgb(255,156,109);"/>
                </g>
                <g transform="matrix(-0.319323,0,0,0.319323,441.407,143.298)">
                    <path d="M261.624,234.178C260.591,236.812 258.284,238.734 255.507,239.274C252.73,239.814 249.87,238.896 247.926,236.841C230.573,217.53 220,191.99 220,164C220,103.841 268.841,55 329,55C350.993,55 371.473,61.528 388.597,72.769C390.917,74.358 392.261,77.025 392.159,79.835C392.056,82.645 390.522,85.206 388.093,86.623C331.388,120.497 286.585,172.285 261.624,234.178Z" style="fill:rgb(255,156,109);"/>
                </g>
                <g transform="matrix(1,0,0,1,-4.17675,-2.22045e-16)">
                    <g transform="matrix(0.562009,0,0,0.383188,86.7,220.072)">
                        <circle cx="329" cy="164" r="109" style="fill:rgb(255,156,109);"/>
                    </g>
                    <g>
                        <g transform="matrix(-1.10105,-1.3484e-16,7.4561e-17,-0.608837,615.594,350.848)">
                            <path d="M307.144,154.28C307.936,151.369 310.41,150.043 312.422,150.043C314.433,150.043 316.972,151.352 317.699,154.28C318.584,157.846 320.139,160.746 321.919,162.719C322.95,163.863 322.783,166.079 322.366,167.777C321.949,169.474 320.922,170.133 319.992,170.568C315.302,172.763 309.149,172.63 304.851,170.568C303.925,170.124 302.894,169.474 302.477,167.777C302.06,166.079 301.768,163.737 302.925,162.719C304.534,161.303 306.037,158.353 307.144,154.28Z" style="fill:rgb(70,13,17);"/>
                        </g>
                        <g transform="matrix(0.928166,0,0,0.928166,-12.974,124.599)">
                            <path d="M306.612,143.838L306.599,143.838C305.771,143.838 305.099,144.51 305.099,145.338L305.099,167.861C305.099,183.878 288.694,188.974 275.69,186.101C267.16,184.216 259.913,178.892 259.927,170.571C259.928,169.743 259.258,169.07 258.43,169.068C257.602,169.067 256.928,169.738 256.927,170.566C256.91,180.293 265.071,186.827 275.043,189.03C287.28,191.734 301.964,187.886 306.612,176.125C311.26,187.886 325.944,191.734 338.181,189.03C348.153,186.827 356.314,180.293 356.297,170.566C356.295,169.738 355.622,169.067 354.794,169.068C353.966,169.07 353.295,169.743 353.297,170.571C353.311,178.892 346.064,184.216 337.533,186.101C324.53,188.974 308.125,183.878 308.125,167.861C308.125,167.861 308.125,145.338 308.125,145.338C308.125,144.51 307.452,143.838 306.625,143.838L306.612,143.838Z"/>
                        </g>
                    </g>
                </g>
                <g transform="matrix(1,0,0,1,-3.57577,-2.13991)">
                    <g>
                        <g transform="matrix(1,0,0,1,-11,0)">
                            <circle cx="236" cy="247" r="11"/>
                        </g>
                        <g transform="matrix(0.181818,0,0,0.181818,186.091,198.091)">
                            <circle cx="236" cy="247" r="11" style="fill:white;"/>
                        </g>
                    </g>
                    <g>
                        <g transform="matrix(1,0,0,1,81,0)">
                            <circle cx="236" cy="247" r="11"/>
                        </g>
                        <g transform="matrix(0.181818,0,0,0.181818,278.091,198.091)">
                            <circle cx="236" cy="247" r="11" style="fill:white;"/>
                        </g>
                    </g>
                </g>
            </g>
        </g>
        <g transform="matrix(0.426781,-6.93889e-18,6.93889e-18,0.426781,274.513,273.2)">
            <g>
                <path d="M88.341,129.378C90.47,122.89 91.254,116.444 87.972,110.791C86.392,108.069 85.675,105.688 85.693,103.839C85.708,102.409 86.147,101.258 86.931,100.423C87.758,99.541 88.992,98.989 90.638,98.914C93.438,98.787 97.606,100.096 102.918,103.43C106.404,105.618 110.414,108.685 114.873,112.795L115.487,114.36L116.193,113.965L117.641,115.402L116.408,116.135L115.853,116.445L114.96,115.571L114.381,115.014L114.802,114.763L113.007,113.8C108.866,110.024 105.128,107.179 101.855,105.124C97.025,102.093 93.275,100.796 90.729,100.912C89.701,100.958 88.906,101.24 88.39,101.791C87.881,102.334 87.668,103.115 87.695,104.068C87.74,105.62 88.41,107.562 89.702,109.787C92.905,115.305 92.658,121.513 90.909,127.833L90.89,127.909C90.45,129.49 89.917,131.078 89.321,132.662C87.625,137.214 85.44,141.743 83.58,146.014C82.116,149.378 80.855,152.578 80.229,155.497C79.642,158.234 79.608,160.709 80.596,162.804C81.931,165.632 85.095,167.686 90.922,168.886C104.79,171.744 114.112,169.815 120.728,165.171C130.747,158.139 134.568,145.04 138.654,133.429C140.527,128.109 142.446,123.087 144.97,119.033C148.901,112.72 154.272,108.696 163.068,109.291C163.618,109.329 164.035,109.806 163.998,110.357C163.96,110.907 163.483,111.324 162.932,111.287C155.018,110.751 150.205,114.409 146.668,120.09C144.213,124.031 142.361,128.92 140.541,134.093C136.319,146.09 132.229,159.543 121.877,166.808C114.913,171.696 105.116,173.853 90.518,170.845C83.829,169.467 80.319,166.904 78.787,163.657C77.259,160.418 77.687,156.398 79.136,151.912C80.873,146.533 84.057,140.434 86.533,134.206L86.533,134.206L87.819,130.959L88.341,129.378Z" style="fill:rgb(255,31,87);"/>
                <g transform="matrix(0.61668,-0.35604,0.35604,0.61668,-54.8258,73.3655)">
                    <path d="M154.704,168.291C159.731,167.497 166.933,167 174.927,167C190.105,167 202.427,168.792 202.427,171C202.427,173.208 190.105,175 174.927,175C166.933,175 159.731,174.503 154.704,173.709C154.704,173.709 86.713,172.487 42.071,171.684C41.698,171.678 41.399,171.373 41.399,171C41.399,170.627 41.698,170.322 42.071,170.316C86.713,169.513 154.704,168.291 154.704,168.291ZM178.221,169.75C189.1,169.75 197.932,170.31 197.932,171C197.932,171.69 189.1,172.25 178.221,172.25C167.343,172.25 158.511,171.69 158.511,171C158.511,170.31 167.343,169.75 178.221,169.75Z" style="fill:rgb(153,153,153);"/>
                </g>
                <path d="M117.264,117.827L117.264,117.827L115.84,116.432L117.631,115.393L119.018,116.748L119.018,116.748C123.308,120.984 127.946,126.099 132.906,132.189C133.255,132.616 133.19,133.247 132.763,133.595C132.335,133.944 131.704,133.88 131.356,133.452C126.307,127.254 121.601,122.078 117.264,117.827Z" style="fill:rgb(255,31,87);"/>
            </g>
        </g>
    </g>
</svg>
